<svg width="28" height="32" viewBox="0 0 28 32" fill="none" xmlns="http://www.w3.org/2000/svg">
<path d="M27.2554 23.4104C27.0478 22.8914 26.7711 22.4071 26.4597 21.9573C24.8682 19.6047 22.412 18.0479 19.6442 17.6673C19.2983 17.6328 18.9177 17.7019 18.6409 17.9095C17.1879 18.982 15.4581 19.5355 13.659 19.5355C11.86 19.5355 10.1302 18.982 8.67712 17.9095C8.40032 17.7019 8.01975 17.5981 7.67382 17.6673C4.9061 18.0479 2.41518 19.6047 0.858357 21.9573C0.546994 22.4071 0.270196 22.9261 0.0626613 23.4104C-0.0411042 23.618 -0.00653735 23.8601 0.09723 24.0677C0.374028 24.5521 0.71996 25.0365 1.03132 25.4516C1.51565 26.109 2.03462 26.6971 2.62278 27.2506C3.10711 27.7349 3.66065 28.1847 4.21424 28.6345C6.94733 30.6757 10.234 31.7481 13.6245 31.7481C17.0149 31.7481 20.3016 30.6756 23.0347 28.6345C23.5882 28.2193 24.1417 27.7349 24.6261 27.2506C25.1797 26.6971 25.7332 26.1089 26.2176 25.4516C26.5635 25.0018 26.875 24.5521 27.1517 24.0677C27.3246 23.8601 27.3592 23.6179 27.2554 23.4104Z" fill="#348074"/>
<path d="M6.76831 10.6955C6.92732 11.3087 7.17229 11.8963 7.49544 12.441L7.68733 12.7639L6.74202 13.7124L8.627 15.5974L9.56082 14.6547L9.88371 14.8466C10.4285 15.1698 11.0163 15.415 11.6292 15.574L11.9928 15.667L11.993 16.9995H14.6606V15.6673L15.0242 15.5742C15.6373 15.4152 16.225 15.17 16.7697 14.8469L17.1247 14.6548L18.0673 15.5974L19.9523 13.7124L19.0097 12.7698L19.2016 12.4469C19.5247 11.9021 19.7697 11.3146 19.9289 10.7014L20.022 10.3378L21.3428 10.3376V7.66703H20.0106L19.9175 7.30347C19.7585 6.69032 19.5133 6.10271 19.1902 5.55799L18.9983 5.2351L19.9409 4.29248L18.0557 2.39871L17.1247 3.34425L16.8018 3.15237C16.2569 2.82923 15.6693 2.58402 15.0563 2.42501L14.6928 2.33199L14.6926 0.999512H12.0103V2.33199L11.6468 2.42501C11.0336 2.58403 10.446 2.82899 9.90126 3.15213L9.56084 3.34425L8.6299 2.39871L6.74197 4.28663L7.6846 5.22924L7.49271 5.55213C7.16957 6.09687 6.92461 6.68445 6.76535 7.29761L6.67233 7.66117L5.34277 7.66141V10.3291H6.67526L6.76831 10.6955ZM13.3425 5.48518C14.2744 5.48518 15.1684 5.85555 15.8275 6.5145C16.4864 7.17367 16.8568 8.0676 16.8568 8.9995C16.8568 9.93139 16.4865 10.8253 15.8275 11.4845C15.1684 12.1434 14.2744 12.5138 13.3425 12.5138C12.4106 12.5138 11.5167 12.1434 10.8575 11.4845C10.1986 10.8253 9.82822 9.93139 9.82822 8.9995C9.8299 8.06785 10.2005 7.17485 10.8592 6.51619C11.5179 5.85752 12.4109 5.48686 13.3425 5.48518Z" fill="#348074" stroke="#348074"/>
</svg>
