<svg xmlns="http://www.w3.org/2000/svg" width="14.892" height="11.849" viewBox="1166.053 446 14.892 11.849"><g data-name="Group 44162"><path d="M1180.213 446.732a1.035 1.035 0 0 1 0 1.464l-8.921 8.92a1.035 1.035 0 0 1-1.464 0 1.035 1.035 0 0 1 0-1.463l8.92-8.92a1.035 1.035 0 0 1 1.465 0z" fill="#36b3a1" fill-rule="evenodd" data-name="Rectangle 4"/><path d="M1166.785 452.61a1.035 1.035 0 0 1 1.464 0l3.043 3.043a1.035 1.035 0 0 1 0 1.464 1.035 1.035 0 0 1-1.464 0l-3.043-3.043a1.035 1.035 0 0 1 0-1.464z" fill="#36b3a1" fill-rule="evenodd" data-name="Rectangle 3"/></g></svg>