<svg width="38" height="25" viewBox="0 0 38 25" fill="none" xmlns="http://www.w3.org/2000/svg">
<path d="M18.8085 12.8432C22.3418 12.8432 25.2301 9.95489 25.2301 6.42159C25.2301 2.8883 22.3418 0 18.8085 0C15.2752 0 12.3869 2.8883 12.3869 6.42159C12.3869 9.95489 15.2752 12.8432 18.8085 12.8432ZM29.8289 17.9748C29.6607 17.5542 29.4364 17.1616 29.184 16.7971C27.894 14.8902 25.9031 13.6283 23.6598 13.3199C23.3794 13.2918 23.0709 13.3479 22.8466 13.5161C21.6688 14.3855 20.2667 14.8341 18.8085 14.8341C17.3503 14.8341 15.9482 14.3855 14.7705 13.5162C14.5461 13.3479 14.2376 13.2638 13.9573 13.3199C11.7139 13.6283 9.69491 14.8902 8.43304 16.7971C8.18067 17.1616 7.95631 17.5823 7.7881 17.9748C7.70399 18.1431 7.73201 18.3394 7.81611 18.5077C8.04047 18.9002 8.32086 19.2929 8.57324 19.6293C8.96581 20.1622 9.38645 20.6388 9.86318 21.0875C10.2558 21.4801 10.7044 21.8446 11.1531 22.2092C13.3684 23.8637 16.0324 24.7329 18.7805 24.7329C21.5286 24.7329 24.1926 23.8636 26.4079 22.2092C26.8565 21.8727 27.3052 21.4801 27.6978 21.0875C28.1465 20.6388 28.5951 20.1621 28.9878 19.6293C29.2682 19.2648 29.5206 18.9002 29.7449 18.5077C29.885 18.3394 29.913 18.1431 29.8289 17.9748Z" fill="#348074"/>
<path d="M29.9775 14.4713C32.4473 14.4713 34.4661 12.4524 34.4661 9.98271C34.4661 7.51301 32.4473 5.49414 29.9775 5.49414C27.5078 5.49414 25.489 7.51301 25.489 9.98271C25.489 12.4524 27.5079 14.4713 29.9775 14.4713ZM37.6807 18.0582C37.563 17.7642 37.4063 17.4898 37.2298 17.235C36.3282 15.9021 34.9366 15.0201 33.3685 14.8045C33.1725 14.7849 32.9569 14.8241 32.8001 14.9417C31.9769 15.5493 30.9968 15.8629 29.9776 15.8629C28.9583 15.8629 27.9783 15.5493 27.1551 14.9417C26.9982 14.8241 26.7826 14.7653 26.5866 14.8045C25.0186 15.0201 23.6073 15.9021 22.7253 17.235C22.5489 17.4898 22.3921 17.7838 22.2745 18.0582C22.2157 18.1758 22.2353 18.313 22.2941 18.4306C22.4509 18.705 22.6469 18.9795 22.8233 19.2147C23.0977 19.5871 23.3917 19.9203 23.725 20.2339C23.9994 20.5083 24.313 20.7631 24.6266 21.0179C26.175 22.1744 28.0371 22.782 29.958 22.782C31.8789 22.782 33.741 22.1744 35.2894 21.0179C35.603 20.7827 35.9166 20.5083 36.191 20.2339C36.5046 19.9203 36.8182 19.5871 37.0927 19.2147C37.2887 18.9599 37.4651 18.705 37.6219 18.4306C37.7199 18.313 37.7394 18.1758 37.6807 18.0582Z" fill="#348074"/>
<path d="M7.73853 14.4713C10.2082 14.4713 12.2271 12.4524 12.2271 9.98271C12.2271 7.51301 10.2082 5.49414 7.73853 5.49414C5.26883 5.49414 3.25 7.51301 3.25 9.98271C3.25 12.4524 5.26886 14.4713 7.73853 14.4713ZM15.4416 18.0582C15.324 17.7642 15.1672 17.4898 14.9908 17.235C14.0892 15.9021 12.6976 15.0201 11.1295 14.8045C10.9335 14.7849 10.7179 14.8241 10.5611 14.9417C9.73785 15.5493 8.75783 15.8629 7.73857 15.8629C6.71931 15.8629 5.73929 15.5493 4.91605 14.9417C4.75923 14.8241 4.54362 14.7653 4.34763 14.8045C2.77957 15.0201 1.36833 15.9021 0.486305 17.235C0.309902 17.4898 0.15308 17.7838 0.0355011 18.0582C-0.0232872 18.1758 -0.00370448 18.313 0.0550857 18.4306C0.211908 18.705 0.407896 18.9795 0.584299 19.2147C0.858699 19.5871 1.15272 19.9203 1.48594 20.2339C1.76035 20.5083 2.07395 20.7631 2.38759 21.0179C3.93603 22.1744 5.79811 22.782 7.71899 22.782C9.63986 22.782 11.5019 22.1744 13.0504 21.0179C13.364 20.7827 13.6776 20.5083 13.952 20.2339C14.2656 19.9203 14.5792 19.5871 14.8537 19.2147C15.0497 18.9599 15.2261 18.705 15.3829 18.4306C15.4808 18.313 15.5004 18.1758 15.4416 18.0582Z" fill="#348074"/>
</svg>
