<svg width="151" height="151" viewBox="0 0 151 151" fill="none" xmlns="http://www.w3.org/2000/svg">
<path d="M47.2065 9.38124H9.68153V46.9062H47.2065V9.38124ZM56.5878 0V56.2875H0.300293V0H56.5878ZM19.0628 18.7625H37.8253V37.525H19.0628L19.0628 18.7625ZM141.019 9.38124H103.494V46.9062H141.019V9.38124ZM150.4 1.66893e-06V56.2875H94.1128V0L150.4 1.66893e-06ZM112.875 18.7625H131.638V37.525H112.875V18.7625ZM47.2065 103.194H9.68155V140.719H47.2065V103.194ZM56.5878 93.8124V150.1H0.300307V93.8124H56.5878ZM19.0628 112.575H37.8253V131.337H19.0628L19.0628 112.575ZM65.969 2.14577e-06H75.3503V9.38124H65.969V2.14577e-06ZM75.3503 9.38124H84.7315V18.7625H75.3503V9.38124ZM65.969 18.7625H75.3503V28.1437H65.969V18.7625ZM75.3503 28.1437H84.7315V37.525H75.3503V28.1437ZM65.969 37.525H75.3503V46.9062H65.969V37.525ZM75.3503 46.9062H84.7315V56.2875H75.3503V46.9062ZM65.969 56.2875H75.3503V65.6687H65.969V56.2875ZM65.969 75.05H75.3503V84.4312H65.969V75.05ZM75.3503 84.4312H84.7315V93.8125H75.3503V84.4312ZM65.969 93.8125H75.3503V103.194H65.969V93.8125ZM75.3503 103.194H84.7315V112.575H75.3503V103.194ZM65.969 112.575H75.3503V121.956H65.969V112.575ZM75.3503 121.956H84.7315V131.337H75.3503V121.956ZM65.969 131.337H75.3503V140.719H65.969V131.337ZM75.3503 140.719H84.7315V150.1H75.3503V140.719ZM141.019 75.05H150.4V84.4312H141.019L141.019 75.05ZM9.68156 75.05H19.0628V84.4312H9.68156V75.05ZM19.0628 65.6687H28.444V75.05H19.0628V65.6687ZM0.300313 65.6687H9.68156V75.05H0.300314L0.300313 65.6687ZM37.8253 65.6687H47.2065V75.05H37.8253V65.6687ZM47.2065 75.05H56.5878V84.4312H47.2065V75.05ZM56.5878 65.6687L65.969 65.6687V75.05L56.5878 75.05V65.6687ZM84.7315 75.05H94.1128V84.4312L84.7315 84.4312V75.05ZM94.1128 65.6687H103.494V75.05H94.1128V65.6687ZM103.494 75.05H112.875V84.4312H103.494V75.05ZM112.875 65.6687H122.256V75.05H112.875V65.6687ZM122.256 75.05H131.638V84.4312H122.256V75.05ZM131.638 65.6687H141.019L141.019 75.05H131.638V65.6687ZM141.019 93.8125H150.4V103.194H141.019L141.019 93.8125ZM84.7315 93.8125L94.1128 93.8125V103.194L84.7315 103.194V93.8125ZM94.1128 84.4312H103.494V93.8125H94.1128L94.1128 84.4312ZM103.494 93.8125H112.875V103.194H103.494V93.8125ZM122.256 93.8125H131.638V103.194H122.256V93.8125ZM131.638 84.4312H141.019L141.019 93.8125H131.638V84.4312ZM141.019 112.575H150.4V121.956H141.019V112.575ZM84.7315 112.575L94.1128 112.575V121.956L84.7315 121.956V112.575ZM94.1128 103.194H103.494L103.494 112.575H94.1128L94.1128 103.194ZM112.875 103.194H122.256L122.257 112.575H112.875V103.194ZM122.257 112.575H131.638V121.956H122.257V112.575ZM131.638 103.194H141.019L141.019 112.575H131.638L131.638 103.194ZM141.019 131.337H150.4V140.719H141.019L141.019 131.337ZM94.1128 121.956H103.494V131.337H94.1128V121.956ZM103.494 131.337H112.875V140.719H103.494V131.337ZM112.875 121.956H122.257L122.257 131.337H112.875V121.956ZM122.257 131.337H131.638V140.719H122.257V131.337ZM94.1128 140.719H103.494V150.1H94.1128V140.719ZM112.875 140.719H122.257V150.1H112.875V140.719ZM131.638 140.719H141.019L141.019 150.1H131.638V140.719Z" fill="black"/>
</svg>
