<svg width="26" height="26" viewBox="0 0 26 26" fill="none" xmlns="http://www.w3.org/2000/svg">
<path d="M12.8847 8.34465e-07C5.7687 8.34465e-07 0 5.7687 0 12.8847C0 20.0008 5.7687 25.7695 12.8847 25.7695C20.0008 25.7695 25.7695 20.0008 25.7695 12.8847C25.761 5.77223 19.9973 0.00851798 12.8847 8.34465e-07ZM12.0258 6.01288C12.0258 5.53848 12.4103 5.1539 12.8847 5.1539C13.3591 5.1539 13.7437 5.53848 13.7437 6.01288V12.0258C13.7437 12.5002 13.3591 12.8847 12.8847 12.8847C12.4103 12.8847 12.0258 12.5002 12.0258 12.0258V6.01288ZM12.8847 20.6156C8.61786 20.609 5.16052 17.1516 5.15389 12.8847C5.14628 10.536 6.21638 8.31345 8.05725 6.85468C8.29311 6.63205 8.63425 6.56125 8.93922 6.67163C9.24419 6.78201 9.46099 7.05476 9.49972 7.37677C9.53844 7.69878 9.3925 8.01515 9.12239 8.1947C7.13158 9.79162 6.36576 12.4713 7.21212 14.8791C8.05847 17.2868 10.3326 18.8979 12.8847 18.8979C15.4369 18.8979 17.711 17.2868 18.5574 14.8791C19.4037 12.4713 18.6379 9.79162 16.6471 8.1947C16.3226 7.88845 16.2867 7.3848 16.5643 7.03555C16.8419 6.68629 17.3407 6.60771 17.7122 6.85468C19.5531 8.31345 20.6232 10.536 20.6156 12.8847C20.609 17.1516 17.1516 20.609 12.8847 20.6156Z" fill="#348074"/>
</svg>
