<svg width="29" height="30" viewBox="0 0 29 30" fill="none" xmlns="http://www.w3.org/2000/svg">
<path d="M24.2252 21.1038C22.3411 19.5142 21.2547 17.174 21.2567 14.7089L21.2568 11.2301C21.2568 6.83911 17.995 3.20431 13.77 2.59539V1.24778C13.77 0.558652 13.2114 0 12.5223 0C11.8331 0 11.2745 0.558652 11.2745 1.24778V2.59539C7.04823 3.20431 3.78777 6.83911 3.78777 11.2301V14.7089C3.78874 17.179 2.6981 19.5234 0.808055 21.1138C0.117005 21.7095 -0.131426 22.6717 0.184872 23.5275C0.501169 24.3833 1.31568 24.9526 2.22804 24.9557H22.8165C24.0206 24.9557 25.0001 23.9762 25.0001 22.7721C25.0001 22.1332 24.7218 21.5293 24.2252 21.1038ZM12.5223 29.9468C14.7446 29.9438 16.6593 28.3804 17.1066 26.2035H7.9379C8.38521 28.3804 10.2999 29.9438 12.5223 29.9468Z" fill="#348074"/>
<circle cx="24" cy="16.9736" r="4.5" fill="#C40000" stroke="white"/>
</svg>
