<svg width="27" height="27" viewBox="0 0 27 27" fill="none" xmlns="http://www.w3.org/2000/svg">
<path d="M25.9569 11.6028L25.955 11.601L15.0733 0.719682C14.6095 0.255559 13.9928 0 13.3369 0C12.6809 0 12.0642 0.255403 11.6002 0.719474L0.724126 11.5953C0.720479 11.5989 0.716832 11.6028 0.713184 11.6065C-0.239341 12.5644 -0.237673 14.1187 0.717874 15.0742C1.15438 15.511 1.73099 15.764 2.34746 15.7904C2.37247 15.7929 2.39774 15.7941 2.42317 15.7941H2.85686V23.8021C2.85686 25.3868 4.14617 26.6761 5.73121 26.6761H9.98845C10.42 26.6761 10.77 26.3263 10.77 25.8946V19.6163C10.77 18.8932 11.3582 18.305 12.0813 18.305H14.5924C15.3155 18.305 15.9037 18.8933 15.9037 19.6163V25.8946C15.9037 26.3263 16.2535 26.6761 16.6852 26.6761H20.9425C22.5275 26.6761 23.8168 25.3868 23.8168 23.8022V15.7941H24.219C24.8748 15.7941 25.4914 15.5387 25.9557 15.0747C26.9123 14.1176 26.9126 12.5606 25.9569 11.6028Z" fill="#348074"/>
</svg>
