<svg width="29" height="30" viewBox="0 0 29 30" fill="none" xmlns="http://www.w3.org/2000/svg">
<path d="M28.1807 16.5562C27.7925 20.2098 26.0113 23.5733 23.2076 25.9475C20.4037 28.3217 16.7927 29.5242 13.1255 29.3049C9.45782 29.0858 6.01566 27.4615 3.51495 24.7705L0.000244141 28.2773V16.5562H11.7291L6.57727 21.7044C8.26627 23.5839 10.6068 24.7507 13.1243 24.9682C15.6418 25.1857 18.1479 24.4373 20.1339 22.8754C22.1203 21.3132 23.438 19.0543 23.8202 16.5562H28.1807Z" fill="#348074"/>
<path d="M28.1808 1.05717V12.7783H16.452L21.6078 7.63006C19.9189 5.75055 17.5781 4.5837 15.0606 4.36625C12.5433 4.14881 10.0372 4.89721 8.05096 6.45907C6.06461 8.02125 4.7468 10.2802 4.36496 12.7782H0C0.38736 9.1235 2.16837 5.75898 4.97308 3.38348C7.77753 1.0084 11.3895 -0.194072 15.058 0.0255554C18.7265 0.245465 22.1693 1.87106 24.67 4.56374L28.1808 1.05717Z" fill="#348074"/>
</svg>
