<svg width="28" height="31" viewBox="0 0 28 31" fill="none" xmlns="http://www.w3.org/2000/svg">
<path d="M13.659 15.8452C18.0181 15.8452 21.5816 12.2818 21.5816 7.92259C21.5816 3.56342 18.0181 0 13.659 0C9.29978 0 5.73643 3.56342 5.73643 7.92259C5.73643 12.2818 9.29985 15.8452 13.659 15.8452ZM27.2554 22.1763C27.0478 21.6574 26.7711 21.173 26.4597 20.7233C24.8682 18.3707 22.412 16.8138 19.6442 16.4333C19.2983 16.3987 18.9177 16.4679 18.6409 16.6754C17.1879 17.7479 15.4581 18.3015 13.659 18.3015C11.86 18.3015 10.1302 17.7479 8.67712 16.6755C8.40032 16.4679 8.01975 16.3641 7.67382 16.4333C4.9061 16.8139 2.41518 18.3707 0.858357 20.7233C0.546994 21.173 0.270196 21.692 0.0626613 22.1763C-0.0411042 22.3839 -0.00653735 22.6261 0.09723 22.8337C0.374028 23.318 0.71996 23.8024 1.03132 24.2175C1.51565 24.8749 2.03462 25.463 2.62278 26.0165C3.10711 26.5009 3.66065 26.9506 4.21424 27.4004C6.94733 29.4416 10.234 30.514 13.6245 30.514C17.0149 30.514 20.3016 29.4416 23.0347 27.4004C23.5882 26.9853 24.1417 26.5009 24.6261 26.0165C25.1797 25.463 25.7332 24.8748 26.2176 24.2175C26.5635 23.7678 26.875 23.318 27.1517 22.8337C27.3246 22.6261 27.3592 22.3839 27.2554 22.1763Z" fill="#348074"/>
</svg>
